<svg width="2024" height="1277" viewBox="0 0 2024 1277" fill="none" xmlns="http://www.w3.org/2000/svg">
<g clip-path="url(#clip0_641_1763)">
<rect width="2024" height="1277" fill="white"/>
<path d="M612.506 -49.6729C663.405 -104.086 745.729 -43.068 790.314 7.27838C754.119 -12.3315 684.971 -40.5322 612.506 -49.6729C595.669 -31.6739 582.271 -1.04486 574.814 46.7784C537.314 287.278 542.314 141.278 438.314 260.278C334.314 379.278 200.314 245.778 212.814 146.278C225.314 46.7784 353.814 7.27832 485.314 -39.7217C524.675 -53.7899 569.183 -55.1375 612.506 -49.6729Z" fill="#C4A9A9"/>
<path d="M790.314 7.27838C730.981 -59.7216 604.814 -145.622 574.814 46.7784C537.314 287.278 542.314 141.278 438.314 260.278C334.314 379.278 200.314 245.778 212.814 146.278C225.314 46.7784 353.814 7.27832 485.314 -39.7217C590.514 -77.3217 732.481 -24.055 790.314 7.27838Z" stroke="#C91010"/>
<path d="M501 547C501 541.477 505.477 537 511 537H635C640.523 537 645 541.477 645 547V948C645 1027.53 580.529 1092 501 1092V547Z" fill="url(#paint0_linear_641_1763)"/>
<path d="M411.365 948.135C331.836 948.135 267.365 1012.61 267.365 1092.13H500.595C580.124 1092.13 644.595 1027.66 644.595 948.135L411.365 948.135Z" fill="url(#paint1_linear_641_1763)"/>
<ellipse cx="569.5" cy="435" rx="75.5" ry="77" fill="#4FBC96"/>
<path d="M917 962.689C911.477 962.689 907 967.167 907 972.689V1102.01C907 1104.59 909.096 1106.69 911.682 1106.69H1001.78C1081.31 1106.69 1145.78 1042.22 1145.78 962.689L917 962.689Z" fill="url(#paint2_linear_641_1763)"/>
<path d="M1003.02 574C1003.02 562.954 1011.98 554 1023.02 554H1127.02C1138.07 554 1147.02 562.954 1147.02 574V961C1147.02 1040.53 1082.55 1105 1003.02 1105V574Z" fill="#4FBC96"/>
<ellipse cx="1071.71" cy="452" rx="75.5" ry="77" fill="#4FBC96"/>
<path d="M1626.52 486C1626.52 481.582 1630.1 478 1634.52 478H1767.91C1772.33 478 1775.91 481.582 1775.91 486V860.382C1775.91 920.287 1765.57 972.177 1744.89 1016.05C1724.63 1059.92 1693.83 1093.88 1652.47 1117.93C1611.54 1141.98 1559.84 1154 1497.38 1154C1492.32 1154 1487.26 1154 1482.19 1154C1479.79 1154 1477.4 1154 1475 1154C1470.58 1154 1467 1150.42 1467 1146V1022.78C1467 1018.36 1470.58 1014.78 1475 1014.78C1477.06 1014.78 1479.04 1014.78 1480.93 1014.78C1485.15 1014.78 1489.79 1014.78 1494.85 1014.78C1540.43 1014.78 1573.77 1001.28 1594.87 974.288C1615.97 947.707 1626.52 909.741 1626.52 860.382V486Z" fill="url(#paint3_linear_641_1763)"/>
<path d="M1775.91 860C1775.91 860 1757.88 980 1536 1010.5L1529 1012C1512 1014.4 1510.5 1014.4 1494.85 1014.4H1480.93H1467V1153.62H1482.19H1497.38C1559.84 1153.62 1611.54 1141.59 1652.47 1117.55C1693.83 1093.5 1724.63 1059.54 1744.89 1015.67C1765.57 971.794 1775.91 919.904 1775.91 860Z" fill="url(#paint4_linear_641_1763)"/>
<ellipse cx="1700.5" cy="384" rx="75.5" ry="77" fill="#4FBC96"/>
</g>
<defs>
<linearGradient id="paint0_linear_641_1763" x1="573" y1="537" x2="573" y2="1092" gradientUnits="userSpaceOnUse">
<stop stop-color="#4FBC96"/>
<stop offset="1" stop-color="#1A7E5C"/>
</linearGradient>
<linearGradient id="paint1_linear_641_1763" x1="267.365" y1="1020.13" x2="584.27" y2="930.451" gradientUnits="userSpaceOnUse">
<stop stop-color="#4FBC96"/>
<stop offset="1" stop-color="#4FBC96"/>
</linearGradient>
<linearGradient id="paint2_linear_641_1763" x1="907" y1="1034.69" x2="1116.93" y2="997.084" gradientUnits="userSpaceOnUse">
<stop stop-color="#4FBC96"/>
<stop offset="1" stop-color="#106648"/>
</linearGradient>
<linearGradient id="paint3_linear_641_1763" x1="1621.45" y1="478" x2="1621" y2="1083" gradientUnits="userSpaceOnUse">
<stop stop-color="#4FBC96"/>
<stop offset="1" stop-color="#46A986"/>
</linearGradient>
<linearGradient id="paint4_linear_641_1763" x1="1776" y1="902.5" x2="1497" y2="1114.5" gradientUnits="userSpaceOnUse">
<stop stop-color="#55DBAC"/>
<stop offset="1" stop-color="#41A381"/>
</linearGradient>
<clipPath id="clip0_641_1763">
<rect width="2024" height="1277" fill="white"/>
</clipPath>
</defs>
</svg>
